<?xml version="1.0" encoding="UTF-8" standalone="no"?>
<!-- Created with Inkscape (http://www.inkscape.org/) -->

<svg
   xmlns:dc="http://purl.org/dc/elements/1.1/"
   xmlns:cc="http://creativecommons.org/ns#"
   xmlns:rdf="http://www.w3.org/1999/02/22-rdf-syntax-ns#"
   xmlns:svg="http://www.w3.org/2000/svg"
   xmlns="http://www.w3.org/2000/svg"
   xmlns:sodipodi="http://sodipodi.sourceforge.net/DTD/sodipodi-0.dtd"
   xmlns:inkscape="http://www.inkscape.org/namespaces/inkscape"
   width="1920"
   height="1080"
   viewBox="0 0 541.86668 304.8"
   version="1.1"
   id="svg8"
   inkscape:version="0.91 r13725"
   sodipodi:docname="drawing.svg">
  <defs
     id="defs2" />
  <sodipodi:namedview
     id="base"
     pagecolor="#ffffff"
     bordercolor="#666666"
     borderopacity="1.0"
     inkscape:pageopacity="0.0"
     inkscape:pageshadow="2"
     inkscape:zoom="0.7"
     inkscape:cx="474.77238"
     inkscape:cy="673.19175"
     inkscape:document-units="mm"
     inkscape:current-layer="layer2"
     showgrid="false"
     inkscape:window-width="1920"
     inkscape:window-height="1057"
     inkscape:window-x="-8"
     inkscape:window-y="-8"
     inkscape:window-maximized="1"
     units="px" />
  <metadata
     id="metadata5">
    <rdf:RDF>
      <cc:Work
         rdf:about="">
        <dc:format>image/svg+xml</dc:format>
        <dc:type
           rdf:resource="http://purl.org/dc/dcmitype/StillImage" />
        <dc:title />
      </cc:Work>
    </rdf:RDF>
  </metadata>
  <g
     inkscape:groupmode="layer"
     id="layer5"
     inkscape:label="h4"
     transform="translate(0,94.80001)" />
  <g
     inkscape:groupmode="layer"
     id="layer8"
     inkscape:label="i2"
     transform="translate(0,94.80001)" />
  <g
     inkscape:groupmode="layer"
     id="layer6"
     inkscape:label="h5"
     transform="translate(0,94.80001)" />
  <g
     inkscape:groupmode="layer"
     id="layer4"
     inkscape:label="h3"
     transform="translate(0,94.80001)" />
  <g
     inkscape:groupmode="layer"
     id="layer2"
     inkscape:label="h1"
     transform="translate(0,94.80001)">
    <path
       style="fill:#000000;stroke:none;stroke-width:0.90624547px;stroke-linecap:butt;stroke-linejoin:miter;stroke-opacity:1"
       d="m 240.41294,-56.348025 0.162,207.628435 -16.02114,15.85931 c 0,0 7.69655,2.39473 10.1567,10.16257 0.70521,2.69233 0.21098,6.35377 -0.60876,6.99134 l 15.6129,-14.88328 c 0,0 4.15108,-6.04475 1.59303,-12.03239 -2.20779,-4.45995 -8.1435,-6.25938 -8.1435,-6.25938 l 0.80916,-209.116816 z"
       id="path838"
       inkscape:connector-curvature="0"
       sodipodi:nodetypes="cccccccccc" />
    <path
       style="fill:#000000;stroke:none;stroke-width:0.90624547px;stroke-linecap:butt;stroke-linejoin:miter;stroke-opacity:1"
       d="M 368.04006,91.262737 367.87804,5.4930795 383.89915,-10.366226 c 0,0 -5.91473,-0.612951 -10.22797,-7.596778 -1.20412,-2.335986 -0.13971,-8.919582 0.68004,-9.557145 l -16.33728,15.20444 c 0,0 -3.9954,4.930336 -1.01123,11.71122979 2.77799,4.24614731 8.28606,6.25939781 8.28606,6.25939781 l -0.80916,85.6078184 z"
       id="path838-6"
       inkscape:connector-curvature="0"
       sodipodi:nodetypes="cccccccccc" />
    <path
       style="fill:#000000;stroke:none;stroke-width:0.90624547px;stroke-linecap:butt;stroke-linejoin:miter;stroke-opacity:1"
       d="m 201.08833,54.344518 35.44069,-39.486412 c 0,0 14.07916,-13.91734145 20.06685,-18.4485689 5.98769,-4.5312293 15.05014,-9.0624541 15.05014,-9.0624541 0,0 23.1831,10.3657061 34.30786,27.834682 3.31208,5.200884 9.14267,12.907914 8.72121,36.814978 -0.45614,25.873987 -37.85051,69.668847 -37.85051,69.668847 0,0 8.69168,-1.90672 13.66326,-0.69325 17.95638,4.38281 26.30862,0.0461 26.30862,0.0461 0,0 -14.72649,16.34478 -17.31576,17.96307 -2.58926,1.6183 -6.31133,0.97097 -6.31133,0.97097 0,0 -17.37782,-4.09016 -23.78897,-3.56025 -4.5312,0.16203 -16.66843,1.78011 -16.66843,1.78011 0,0 38.35362,-34.30786 42.39934,-57.611315 4.04575,-23.303441 1.87413,-41.915396 -3.88391,-53.241914 C 283.1403,11.411183 263.49206,-1.4213111 259.18514,0.45544805 249.81518,4.5384395 248.18073,6.9286222 232.48327,23.920727 216.78579,40.91283 201.57382,58.390422 201.57382,58.390422 Z"
       id="path861"
       inkscape:connector-curvature="0"
       sodipodi:nodetypes="ccscsscscccccsssscc" />
    <path
       style="fill:#000000;stroke:none;stroke-width:0.90624547px;stroke-linecap:butt;stroke-linejoin:miter;stroke-opacity:1"
       d="m 232.32142,-45.827984 -13.59368,9.386122 c 0,0 -7.28231,6.473175 -7.60598,11.813555 -0.32368,5.340376 0.16167,108.911282 0.16167,108.911282 0,0 0.80916,16.506625 -5.50219,24.921735 -6.31138,8.41518 -10.03344,9.06245 -15.69748,13.4319 -2.91292,1.94193 -9.06245,7.60597 -10.84258,9.87159 -1.7801,2.26559 -3.56024,5.34036 -3.56024,5.34036 0,0 5.01672,-2.42745 14.40282,-0.48547 6.58406,0.95247 14.93089,1.09302 14.93089,1.09302 l 7.88707,0.0399 13.59367,-14.40285 c 0,0 -16.97359,1.53881 -22.00878,0.32368 -3.72209,-0.80917 -7.60601,-0.64732 -7.60601,-0.64732 0,0 20.39052,-11.16627 23.78894,-31.233129 3.39844,-20.066858 3.07478,-31.556766 3.07478,-31.556766 l 1.29462,-88.682586 c 0,0 -0.97096,-9.224285 7.28235,-18.124916 z"
       id="path835"
       inkscape:connector-curvature="0"
       sodipodi:nodetypes="ccccccccccccccscccc" />
    <path
       style="fill:#000000;stroke:none;stroke-width:0.90624547px;stroke-linecap:butt;stroke-linejoin:miter;stroke-opacity:1"
       d="m 162.0874,-35.875457 c 0,0 0.32367,-3.803 3.39843,-10.276182 6.39326,-11.679783 15.59395,-16.213046 16.88174,-16.873605 1.75332,-0.899358 14.02768,-7.886315 32.23351,0.609721 18.20586,8.496043 34.95519,1.861042 34.95519,1.861042 0,0 -20.79509,13.674598 -40.7001,13.674598 -19.90505,0 -20.30964,-7.039583 -31.5568,-3.155674 -12.9455,4.470397 -15.21197,14.16009 -15.21197,14.16009 z"
       id="path829"
       inkscape:connector-curvature="0"
       sodipodi:nodetypes="ccsscsscc" />
    <path
       style="fill:#000000;stroke:none;stroke-width:0.90624547px;stroke-linecap:butt;stroke-linejoin:miter;stroke-opacity:1"
       d="m 211.76907,-33.690764 c 0,0 -18.93404,10.357093 -19.74321,23.141631 -0.80914,12.7845295 0.16202,43.370315 0.16202,43.370315 0,0 -5.66402,-0.970973 -9.87158,3.722085 -3.88391,4.369388 -8.25331,11.975383 -8.25331,11.975383 0,0 17.30408,-10.314041 17.96308,5.502208 l 0.48548,11.651709 c 0,0 -9.54797,-4.04572 -17.31575,8.253313 -6.47321,12.299069 -4.53125,10.195255 -4.53125,10.195255 0,0 21.36639,-13.311214 21.68516,6.311373 0.30484,18.772562 -5.66401,29.129312 -5.66401,29.129312 0,0 19.41954,-22.170649 19.09585,-49.358016 -0.32367,-27.187355 -0.162,-83.342215 -0.162,-83.342215 0,0 0.97099,-12.946362 6.14952,-20.552353 z"
       id="path832"
       inkscape:connector-curvature="0"
       sodipodi:nodetypes="cscccscccscscc" />
    <path
       style="fill:#000000;stroke:none;stroke-width:0.90624547px;stroke-linecap:butt;stroke-linejoin:miter;stroke-opacity:1"
       d="m 349.82032,39.289041 c 0,0 12.25896,-11.335683 14.69423,-12.669715 2.96668,-1.973668 7.75772,-2.808996 10.7651,-1.149593 3.36918,2.625331 2.87722,11.333032 2.87722,11.333032 l -2.05251,84.389975 c 0,0 -1.07301,9.74886 4.86978,9.2921 5.94276,-0.45668 9.89915,-3.05012 9.89915,-3.05012 0,0 -15.51168,10.49195 -20.28953,10.34435 -2.86296,-0.0887 -4.21875,-0.66345 -6.59994,-3.99434 -1.42967,-2.94846 -0.95929,-14.28812 -0.95929,-14.28812 l 0.96025,-81.650923 c 0,0 0.14419,-4.437762 -3.60731,-3.107219 -3.75148,1.330535 -10.55715,4.550573 -10.55715,4.550573 z"
       id="path866"
       inkscape:connector-curvature="0"
       sodipodi:nodetypes="cccccccscccsc" />
  </g>
  <g
     inkscape:groupmode="layer"
     id="layer3"
     inkscape:label="h2"
     transform="translate(0,94.80001)" />
  <g
     inkscape:groupmode="layer"
     id="layer7"
     inkscape:label="i1"
     transform="translate(0,94.80001)" />
</svg>
