<?xml version="1.0" encoding="UTF-8" standalone="no"?>
<!-- Created with Inkscape (http://www.inkscape.org/) -->

<svg
   xmlns:dc="http://purl.org/dc/elements/1.1/"
   xmlns:cc="http://creativecommons.org/ns#"
   xmlns:rdf="http://www.w3.org/1999/02/22-rdf-syntax-ns#"
   xmlns:svg="http://www.w3.org/2000/svg"
   xmlns="http://www.w3.org/2000/svg"
   xmlns:sodipodi="http://sodipodi.sourceforge.net/DTD/sodipodi-0.dtd"
   xmlns:inkscape="http://www.inkscape.org/namespaces/inkscape"
   width="1920"
   height="1080"
   viewBox="0 0 541.86668 304.8"
   version="1.1"
   id="svg8"
   inkscape:version="0.92.3 (2405546, 2018-03-11)"
   sodipodi:docname="h_curve_bit.svg">
  <defs
     id="defs2" />
  <sodipodi:namedview
     id="base"
     pagecolor="#ffffff"
     bordercolor="#666666"
     borderopacity="1.0"
     inkscape:pageopacity="0.0"
     inkscape:pageshadow="2"
     inkscape:zoom="8"
     inkscape:cx="769.65353"
     inkscape:cy="578.42753"
     inkscape:document-units="mm"
     inkscape:current-layer="layer9"
     showgrid="false"
     inkscape:window-width="2160"
     inkscape:window-height="1406"
     inkscape:window-x="-11"
     inkscape:window-y="-11"
     inkscape:window-maximized="1"
     units="px" />
  <metadata
     id="metadata5">
    <rdf:RDF>
      <cc:Work
         rdf:about="">
        <dc:format>image/svg+xml</dc:format>
        <dc:type
           rdf:resource="http://purl.org/dc/dcmitype/StillImage" />
        <dc:title></dc:title>
      </cc:Work>
    </rdf:RDF>
  </metadata>
  <g
     inkscape:groupmode="layer"
     id="layer2"
     inkscape:label="h1"
     sodipodi:insensitive="true">
    <path
       style="fill:#000000;stroke:none;stroke-width:0.90624547px;stroke-linecap:butt;stroke-linejoin:miter;stroke-opacity:1"
       d="m 201.08833,155.46418 35.44069,-39.48641 c 0,0 14.07916,-13.91734 20.06685,-18.448569 5.98769,-4.531229 15.05014,-9.062454 15.05014,-9.062454 0,0 23.1831,10.365706 34.30786,27.834683 3.31208,5.20088 9.14267,12.90791 8.72121,36.81498 -0.45614,25.87398 -37.85051,69.66884 -37.85051,69.66884 0,0 8.69168,-1.90672 13.66326,-0.69325 17.95638,4.38281 26.30862,0.0461 26.30862,0.0461 0,0 -14.72649,16.34478 -17.31576,17.96307 -2.58926,1.6183 -6.31133,0.97097 -6.31133,0.97097 0,0 -17.37782,-4.09016 -23.78897,-3.56025 -4.5312,0.16203 -16.66843,1.78011 -16.66843,1.78011 0,0 38.35362,-34.30786 42.39934,-57.61131 4.04575,-23.30344 1.87413,-41.9154 -3.88391,-53.24192 -8.08709,-15.90792 -27.73533,-28.740417 -32.04225,-26.86366 -9.36996,4.08299 -11.00441,6.47318 -26.70187,23.46528 -15.69748,16.9921 -30.90945,34.4697 -30.90945,34.4697 z"
       id="path861"
       inkscape:connector-curvature="0"
       sodipodi:nodetypes="ccscsscscccccsssscc" />
  </g>
  <g
     inkscape:groupmode="layer"
     id="layer1"
     inkscape:label="h2"
     sodipodi:insensitive="true">
    <path
       style="fill:#666666;stroke:none;stroke-width:0.90624541px;stroke-linecap:butt;stroke-linejoin:miter;stroke-opacity:1"
       d="m 201.088,155.46417 35.44068,-39.4864 c 0,0 14.07916,-13.91734 20.06686,-18.448569 5.98769,-4.531229 15.05013,-9.062454 15.05013,-9.062454 0,0 23.1831,10.365706 34.30787,27.834683 3.31208,5.20088 9.14267,12.9079 8.72121,36.81497 -0.45614,25.87399 -37.85052,69.66884 -37.85052,69.66884 0,0 5.40864,0.91324 6.12671,1.05378 4.66857,0.91373 7.02734,3.30818 7.02734,3.30818 0,0 -11.09119,5.59043 -13.68047,7.20872 -2.58926,1.6183 -8.65701,0.22008 -8.65701,0.22008 0,0 -3.50254,-0.48054 -5.20976,0.0494 -3.46212,0.91038 -9.71941,4.66662 -9.71941,4.66662 0,0 38.35361,-34.30786 42.39933,-57.6113 4.04575,-23.30345 1.87414,-41.9154 -3.88391,-53.24192 -8.08709,-15.90792 -27.73533,-28.740417 -32.04225,-26.86366 -9.36995,4.08299 -11.00441,6.47318 -26.70187,23.46528 -15.69747,16.9921 -30.90944,34.46969 -30.90944,34.46969 z"
       id="path861-6"
       inkscape:connector-curvature="0"
       sodipodi:nodetypes="ccscsscscccccsssscc" />
  </g>
  <g
     inkscape:groupmode="layer"
     id="layer3"
     inkscape:label="h3"
     sodipodi:insensitive="true">
    <path
       style="fill:#808080;stroke:none;stroke-width:0.90624541px;stroke-linecap:butt;stroke-linejoin:miter;stroke-opacity:1"
       d="m 201.088,155.4639 35.44068,-39.4864 c 0,0 14.07916,-13.91734 20.06686,-18.448574 5.98769,-4.53123 15.05013,-9.06246 15.05013,-9.06246 0,0 23.1831,10.36571 34.30787,27.834694 3.31208,5.20087 9.14267,12.9079 8.72121,36.81497 -0.45614,25.87398 -37.85052,69.66883 -37.85052,69.66883 0,0 -1.58544,1.18022 -2.10519,1.69523 -0.66551,0.65943 -2.24931,2.01995 -2.34491,2.06092 0,0 -2.51905,2.07608 -3.39781,2.58966 -1.62709,1.33321 -4.34219,2.81828 -4.34219,2.81828 0,0 -2.98931,1.75736 -4.5907,2.6048 -1.92977,0.87474 -7.3318,4.73789 -7.3318,4.73789 0,0 38.35361,-34.30786 42.39933,-57.6113 4.04575,-23.30344 1.87414,-41.9154 -3.88391,-53.24191 -8.08709,-15.90792 -27.73533,-28.740424 -32.04225,-26.86366 -9.36995,4.08299 -11.00441,6.47318 -26.70187,23.46527 -15.69747,16.99211 -30.90944,34.4697 -30.90944,34.4697 z"
       id="path861-6-7"
       inkscape:connector-curvature="0"
       sodipodi:nodetypes="ccscsscscccccsssscc" />
  </g>
  <g
     inkscape:groupmode="layer"
     id="layer4"
     inkscape:label="h4"
     sodipodi:insensitive="true">
    <path
       style="fill:#999999;stroke:none;stroke-width:0.90624541px;stroke-linecap:butt;stroke-linejoin:miter;stroke-opacity:1"
       d="m 201.088,155.4639 35.44068,-39.4864 c 0,0 14.07917,-13.91734 20.06687,-18.448574 5.98768,-4.53123 15.05012,-9.06246 15.05012,-9.06246 0,0 23.1831,10.36571 34.30787,27.834694 3.31208,5.20088 5.29524,10.92991 6.11065,14.44886 0.78844,3.40253 2.04791,16.26198 2.04791,16.26198 0,0 -0.73358,7.81452 -0.83519,8.53912 -0.17162,1.22387 -0.37962,2.16107 -0.86325,4.56565 0,0 -0.26127,1.54691 -0.75197,3.11882 -1.34487,3.27349 -3.14275,6.66356 -3.14275,6.66356 0,0 -1.04903,1.82792 -2.54459,3.94536 -1.36533,2.32113 -7.19069,8.72428 -7.19069,8.72428 0,0 -0.47247,-26.77868 -0.68845,-29.18507 -0.31727,-3.53494 -1.11011,-13.61868 -6.86816,-24.94519 -8.08709,-15.90792 -27.73533,-28.740424 -32.04225,-26.86366 -9.36995,4.08299 -11.0044,6.47318 -26.70186,23.46528 -15.69748,16.9921 -30.90945,34.46969 -30.90945,34.46969 z"
       id="path861-6-7-3"
       inkscape:connector-curvature="0"
       sodipodi:nodetypes="ccscsscscccccsssscc" />
  </g>
  <g
     inkscape:groupmode="layer"
     id="layer5"
     inkscape:label="h5"
     sodipodi:insensitive="true">
    <path
       style="fill:#b3b3b3;stroke:none;stroke-width:0.90624541px;stroke-linecap:butt;stroke-linejoin:miter;stroke-opacity:1"
       d="m 201.088,155.46365 35.44068,-39.4864 c 0,0 14.07917,-13.91734 20.06687,-18.448574 5.98768,-4.53123 15.05012,-9.06246 15.05012,-9.06246 0,0 5.04623,2.562433 6.29939,3.453773 1.48338,1.055081 4.73352,3.068095 6.1691,4.220382 2.01873,1.620352 6.3326,4.849099 6.3326,4.849099 0,0 2.5384,2.13678 3.06456,2.64523 1.52465,1.47332 3.57297,3.54234 4.18692,4.74956 0,0 0.6666,1.05363 1.1737,3.02466 0.20173,1.1282 0.49899,2.69654 0.49899,2.69654 0,0 0.11531,0.36961 0.81493,4.13343 0.33094,3.76795 -0.72526,12.83388 -0.72526,12.83388 0,0 -14.91474,-14.04147 -16.68805,-15.68243 -3.01135,-2.78658 -3.50397,-3.56729 -10.31328,-8.11873 -5.6486,-3.77561 -8.96755,-7.573754 -13.27447,-5.69699 -9.36995,4.08299 -11.0044,6.47318 -26.70186,23.46528 -15.69748,16.9921 -30.90945,34.46969 -30.90945,34.46969 z"
       id="path861-6-7-3-4"
       inkscape:connector-curvature="0"
       sodipodi:nodetypes="ccscsscscccccsssscc" />
  </g>
  <g
     inkscape:groupmode="layer"
     id="layer6"
     inkscape:label="h6"
     sodipodi:insensitive="true">
    <path
       style="fill:#cccccc;stroke:none;stroke-width:0.90624541px;stroke-linecap:butt;stroke-linejoin:miter;stroke-opacity:1"
       d="M 201.088,155.46341 236.52868,115.977 c 0,0 5.00921,-4.4331 7.0455,-6.52479 0.90706,-0.93174 3.62524,-3.37496 3.62524,-3.37496 0,0 13.3022,-11.642709 14.73085,-12.211791 1.23393,-0.491518 2.70322,-1.840033 4.32316,-2.714371 1.61961,-0.874163 5.39258,-2.684341 5.39258,-2.684341 0,0 1.84227,0.994306 2.50787,1.298196 0.48395,0.220959 1.27698,0.513124 1.94384,0.926594 0,0 1.86198,0.857704 2.38672,1.435262 0.55451,0.299172 1.20498,0.922103 1.20498,0.922103 0,0 0.63738,0.821219 0.86075,1.7099 0.54261,1.86295 1.24926,7.028118 1.24926,7.028118 0,0 -7.34903,-5.627662 -8.98134,-6.07999 -2.69377,-0.74647 -7.20959,1.085563 -8.83127,1.946667 -1.12528,0.597512 -7.71026,4.334163 -8.89303,5.317703 -1.54169,1.28201 -6.91339,5.07625 -22.61085,22.06835 -15.69748,16.99211 -30.90945,34.46969 -30.90945,34.46969 z"
       id="path861-6-7-3-4-4"
       inkscape:connector-curvature="0"
       sodipodi:nodetypes="ccscsscscccccsssscc" />
  </g>
  <g
     inkscape:groupmode="layer"
     id="layer7"
     inkscape:label="h7"
     sodipodi:insensitive="true">
    <path
       style="fill:#e6e6e6;stroke:none;stroke-width:0.90624541px;stroke-linecap:butt;stroke-linejoin:miter;stroke-opacity:1"
       d="m 201.088,155.4634 18.62764,-20.57797 c 0,0 4.70987,-5.43091 6.74616,-7.5226 0.90706,-0.93174 4.62305,-5.02134 4.62305,-5.02134 0,0 5.66898,-6.20467 6.7484,-7.22276 0.96624,-0.91135 3.70103,-3.83565 5.32097,-5.159 1.42532,-1.16437 5.44247,-4.87951 5.44247,-4.87951 0,0 5.70298,-5.412443 6.29953,-5.836123 0.88307,-0.627176 4.91897,-3.677662 6.13463,-4.411669 0,0 4.35649,-2.933959 5.5797,-3.404098 1.20308,-0.548964 3.35026,-1.17329 3.35026,-1.17329 0,0 2.13409,-0.52582 3.95395,1.161107 0.84195,0.815253 1.69827,2.288542 1.69827,2.288542 0,0 -5.20375,-0.189623 -10.92706,2.950152 -2.45073,1.344453 -16.78853,13.059239 -18.65966,14.519029 -1.00454,0.7837 -6.41311,6.42956 -7.59588,7.4131 -1.54169,1.28201 -18.63762,19.69411 -20.91458,22.2679 -15.328,17.32615 -15.94236,18.65447 -15.94236,18.65447 z"
       id="path861-6-7-3-4-4-6"
       inkscape:connector-curvature="0"
       sodipodi:nodetypes="ccscsscscccccsssscc" />
  </g>
  <g
     inkscape:groupmode="layer"
     id="layer8"
     inkscape:label="h8"
     sodipodi:insensitive="true">
    <path
       style="fill:#ff6600;stroke:none;stroke-width:0.90624541px;stroke-linecap:butt;stroke-linejoin:miter;stroke-opacity:1"
       d="m 201.088,155.4634 5.65616,-6.20956 c 0,0 4.70987,-5.13157 6.74616,-7.22326 0.90706,-0.93174 4.22393,-4.92156 4.22393,-4.92156 0,0 4.57139,-5.10708 5.6508,-6.12517 0.96625,-0.91135 4.19994,-5.53192 5.81987,-6.85527 1.42533,-1.16437 4.54444,-4.97929 4.54444,-4.97929 0,0 7.59882,-7.7074 8.19537,-8.13108 0.88307,-0.62717 4.32029,-4.02689 5.38627,-5.06024 0,0 2.66022,-2.38517 3.83354,-3.55377 1.30286,-1.14765 2.90125,-2.32077 2.90125,-2.32077 0,0 1.03651,-0.775268 3.20561,-2.13165 1.34085,-0.631566 4.0431,-1.752573 4.0431,-1.752573 0,0 -12.68729,12.233063 -14.07015,13.876133 -1.79996,2.13864 -13.2962,13.80759 -15.16733,15.26738 -1.00455,0.7837 -6.91202,8.12583 -8.09479,9.10937 -1.54169,1.28201 -17.32844,18.30023 -19.2183,21.17031 -1.15915,1.76038 -3.17044,3.88694 -3.17044,3.88694 z"
       id="path861-6-7-3-4-4-6-0"
       inkscape:connector-curvature="0"
       sodipodi:nodetypes="ccscsscscccccsssscc" />
  </g>
  <g
     inkscape:groupmode="layer"
     id="layer9"
     inkscape:label="h9"
     sodipodi:insensitive="true">
    <path
       style="fill:#66ff00;stroke:none;stroke-width:0.90624541px;stroke-linecap:butt;stroke-linejoin:miter;stroke-opacity:1"
       d="m 201.088,155.46339 1.56394,-1.55289 1.80727,-2.00215 2.67171,-2.80489 1.98191,-2.31517 2.22153,-2.1986 3.13333,-3.77984 2.48037,-2.83942 2.07016,-2.23802 1.50521,-1.57821 2.05458,-2.32077 2.07672,-1.99054 4.46644,-3.72813 -14.98738,19.52058 -3.24343,3.6257 -2.52091,2.61827 -3.62552,3.74309 c 0,0 -2.86296,3.2185 -3.17044,3.88694 z"
       id="path861-6-7-3-4-4-6-0-4"
       inkscape:connector-curvature="0"
       sodipodi:nodetypes="ccccccccccccccccccc" />
    <path
       style="fill:#ff0000;stroke:none;stroke-width:0.90624541px;stroke-linecap:butt;stroke-linejoin:miter;stroke-opacity:1"
       d="m 201.57334,159.50934 v 0 0 0 0 0 0 0 0 0 0 0 0 0 0 z"
       id="path861-6-7-3-4-4-6-0-4-9"
       inkscape:connector-curvature="0"
       sodipodi:nodetypes="ccccccccccccccccccc" />
  </g>
  <g
     inkscape:groupmode="layer"
     id="layer10"
     inkscape:label="h10" />
</svg>
