<?xml version="1.0" encoding="UTF-8" standalone="no"?>
<!-- Created with Inkscape (http://www.inkscape.org/) -->

<svg
   xmlns:dc="http://purl.org/dc/elements/1.1/"
   xmlns:cc="http://creativecommons.org/ns#"
   xmlns:rdf="http://www.w3.org/1999/02/22-rdf-syntax-ns#"
   xmlns:svg="http://www.w3.org/2000/svg"
   xmlns="http://www.w3.org/2000/svg"
   xmlns:sodipodi="http://sodipodi.sourceforge.net/DTD/sodipodi-0.dtd"
   xmlns:inkscape="http://www.inkscape.org/namespaces/inkscape"
   width="1920"
   height="1080"
   viewBox="0 0 541.86668 304.8"
   version="1.1"
   id="svg8"
   inkscape:version="0.91 r13725"
   sodipodi:docname="h_main_spine.svg">
  <defs
     id="defs2" />
  <sodipodi:namedview
     id="base"
     pagecolor="#ffffff"
     bordercolor="#666666"
     borderopacity="1.0"
     inkscape:pageopacity="0.0"
     inkscape:pageshadow="2"
     inkscape:zoom="1"
     inkscape:cx="954.95061"
     inkscape:cy="724.33492"
     inkscape:document-units="mm"
     inkscape:current-layer="layer9"
     showgrid="false"
     inkscape:window-width="1920"
     inkscape:window-height="1057"
     inkscape:window-x="-8"
     inkscape:window-y="-8"
     inkscape:window-maximized="1"
     units="px" />
  <metadata
     id="metadata5">
    <rdf:RDF>
      <cc:Work
         rdf:about="">
        <dc:format>image/svg+xml</dc:format>
        <dc:type
           rdf:resource="http://purl.org/dc/dcmitype/StillImage" />
        <dc:title></dc:title>
      </cc:Work>
    </rdf:RDF>
  </metadata>
  <g
     inkscape:groupmode="layer"
     id="layer2"
     inkscape:label="p0"
     transform="translate(0,94.80001)"
     style="display:inline"
     sodipodi:insensitive="true">
    <path
       style="fill:#000000;stroke:none;stroke-width:0.90624547px;stroke-linecap:butt;stroke-linejoin:miter;stroke-opacity:1"
       d="m 232.32142,-45.827984 -13.59368,9.386122 c 0,0 -7.28231,6.473175 -7.60598,11.813555 -0.32368,5.340376 0.16167,108.911282 0.16167,108.911282 0,0 0.80916,16.506625 -5.50219,24.921735 -6.31138,8.41518 -10.03344,9.06245 -15.69748,13.4319 -2.91292,1.94193 -9.06245,7.60597 -10.84258,9.87159 -1.7801,2.26559 -3.56024,5.34036 -3.56024,5.34036 0,0 5.01672,-2.42745 14.40282,-0.48547 6.58406,0.95247 14.93089,1.09302 14.93089,1.09302 l 7.88707,0.0399 13.59367,-14.40285 c 0,0 -16.97359,1.53881 -22.00878,0.32368 -3.72209,-0.80917 -7.60601,-0.64732 -7.60601,-0.64732 0,0 20.39052,-11.16627 23.78894,-31.233129 3.39844,-20.066858 3.07478,-31.556766 3.07478,-31.556766 l 1.29462,-88.682586 c 0,0 -0.97096,-9.224285 7.28235,-18.124916 z"
       id="path835"
       inkscape:connector-curvature="0"
       sodipodi:nodetypes="ccccccccccccccscccc" />
  </g>
  <g
     inkscape:groupmode="layer"
     id="layer1"
     inkscape:label="p1"
     sodipodi:insensitive="true">
    <path
       style="display:inline;fill:#1a1a1a;stroke:none;stroke-width:0.90624547px;stroke-linecap:butt;stroke-linejoin:miter;stroke-opacity:1"
       d="m 232.32149,48.972016 -13.59368,9.386122 c 0,0 -7.28231,6.473172 -7.60598,11.813552 -0.32368,5.34038 0.16167,108.91128 0.16167,108.91128 0,0 0.80916,16.50662 -5.50219,24.92173 -6.31138,8.41518 -10.03344,9.06245 -15.69748,13.4319 -2.91292,1.94193 -9.06245,7.60597 -10.84258,9.87159 -1.7801,2.26559 -3.56024,5.34036 -3.56024,5.34036 0,0 5.65817,-9.83973 15.04427,-7.89775 6.58406,0.95247 7.8037,1.30684 7.8037,1.30684 l 5.32128,2.24933 9.31736,-4.78115 c 0,0 -3.64575,-3.09386 -8.68094,-4.30899 -3.72209,-0.80917 -7.60601,-0.64732 -7.60601,-0.64732 0,0 20.39052,-11.16627 23.78894,-31.23313 3.39844,-20.06685 3.07478,-31.55676 3.07478,-31.55676 l 1.29462,-88.68258 c 0,0 -0.97096,-9.224287 7.28235,-18.124918 z"
       id="path835-4"
       inkscape:connector-curvature="0"
       sodipodi:nodetypes="ccccccccccccccscccc" />
  </g>
  <g
     inkscape:groupmode="layer"
     id="layer3"
     inkscape:label="p2"
     sodipodi:insensitive="true"
     style="display:inline">
    <path
       style="display:inline;fill:#4d4d4d;stroke:none;stroke-width:0.90624547px;stroke-linecap:butt;stroke-linejoin:miter;stroke-opacity:1"
       d="m 232.32149,48.97247 -13.59368,9.38612 c 0,0 -7.28231,6.47318 -7.60598,11.81356 -0.32368,5.34038 0.16167,108.91128 0.16167,108.91128 0,0 0.80916,16.50662 -5.50219,24.92172 -2.10634,3.0698 -1.83717,3.78833 -7.50121,8.15779 -0.64506,0.50562 -5.54716,3.74803 -6.06737,4.09857 -0.46904,0.31815 -8.9769,7.47851 -8.9769,7.47851 0,0 3.21863,-1.68669 4.03727,-1.98737 0.68762,-0.25707 2.18445,-0.73423 2.18445,-0.73423 l 2.59985,-1.05168 2.06022,-0.5982 c 0,0 0.76398,-0.24643 1.8016,-0.50402 0.46084,-0.22959 0.96145,-0.29459 0.96145,-0.29459 0,0 20.39052,-11.16627 23.78894,-31.23312 3.39844,-20.06685 3.07478,-31.55676 3.07478,-31.55676 l 1.29462,-88.68258 c 0,0 -0.97096,-9.22429 7.28235,-18.12492 z"
       id="path835-4-3"
       inkscape:connector-curvature="0"
       sodipodi:nodetypes="ccccccccccccccscccc" />
  </g>
  <g
     inkscape:groupmode="layer"
     id="layer4"
     inkscape:label="p3"
     style="display:inline"
     sodipodi:insensitive="true">
    <path
       style="display:inline;fill:#666666;stroke:none;stroke-width:0.90624547px;stroke-linecap:butt;stroke-linejoin:miter;stroke-opacity:1"
       d="m 232.32167,48.972449 -13.59368,9.38612 c 0,0 -7.28231,6.47318 -7.60598,11.81356 -0.32368,5.34038 0.16167,108.911281 0.16167,108.911281 0,0 0.4528,16.72044 -1.51096,20.85922 -2.10634,3.0698 -2.90625,4.78614 -4.43652,6.16218 -0.64506,0.50562 -3.12392,3.67676 -3.64413,4.0273 -0.46904,0.31815 -6.05475,5.4829 -6.05475,5.4829 0,0 1.87669,-0.86095 2.69533,-1.16163 0.68762,-0.25707 2.33639,-0.97399 2.33639,-0.97399 l 2.00447,-1.30292 2.61951,-1.64566 c 0,0 1.25141,-1.40334 2.21344,-1.81212 0.61203,-0.25479 3.25079,-2.77688 3.25079,-2.77688 0,0 8.29592,-9.44277 9.91254,-18.60502 3.53646,-20.04299 3.07478,-31.55676 3.07478,-31.55676 l 1.29462,-88.682581 c 0,0 -0.97096,-9.22429 7.28235,-18.12492 z"
       id="path835-4-3-0"
       inkscape:connector-curvature="0"
       sodipodi:nodetypes="ccccccccccccccscccc" />
  </g>
  <g
     inkscape:groupmode="layer"
     id="layer5"
     inkscape:label="p4"
     style="display:inline"
     sodipodi:insensitive="true">
    <path
       style="display:inline;fill:#808080;stroke:none;stroke-width:0.90624547px;stroke-linecap:butt;stroke-linejoin:miter;stroke-opacity:1"
       d="m 232.3211,48.972161 -13.59368,9.386121 c 0,0 -7.28231,6.47318 -7.60598,11.81356 -0.32368,5.34038 0.80312,81.827968 0.80312,81.827968 0,0 0.80916,12.80048 0.69847,17.01053 -0.32455,4.92288 -0.26919,17.57945 -0.30276,19.77511 -0.0234,2.65553 -0.1305,4.92402 -0.36561,6.30801 -0.25523,0.85269 -0.81628,4.34254 -0.81628,4.34254 0,0 3.62285,-5.92125 4.22768,-7.21973 0.65199,-1.29052 2.97784,-7.67355 2.97784,-7.67355 l 1.46993,-3.86871 0.83771,-2.89292 c 0,0 0.68124,-1.90224 0.96618,-3.34446 0.25567,-0.8606 0.68501,-3.41833 0.68501,-3.41833 0,0 0.43936,-3.23692 0.64719,-5.91863 0.21642,-2.7926 0.93662,-35.04908 0.93662,-35.04908 l 1.15208,-62.953428 c 0,0 -0.97096,-9.22429 7.28235,-18.124921 z"
       id="path835-4-3-0-0"
       inkscape:connector-curvature="0"
       sodipodi:nodetypes="ccccccccccccccscccc" />
  </g>
  <g
     inkscape:groupmode="layer"
     id="layer6"
     inkscape:label="p5"
     style="display:inline"
     sodipodi:insensitive="true">
    <path
       style="display:inline;fill:#999999;stroke:none;stroke-width:0.90624547px;stroke-linecap:butt;stroke-linejoin:miter;stroke-opacity:1"
       d="m 232.3211,48.972157 -13.59368,9.38612 c 0,0 -7.28231,6.47319 -7.60598,11.81357 -0.0136,1.016017 0.0191,1.718371 0.0191,1.718371 0,0 -0.004,0.346796 -0.004,0.572908 0.008,0.225109 0.0247,0.705984 0.0713,0.941668 0.0455,0.364259 0.1082,0.941582 0.13561,1.235097 0.0209,0.282514 1.54508,10.457108 1.54508,10.457108 0,0 1.93626,-4.076394 2.27382,-4.840335 0.65199,-1.29052 1.83749,-2.969606 1.83749,-2.969606 l 1.82629,-2.229457 1.44351,-1.895114 c 0,0 1.06433,-1.741879 1.41163,-2.311018 0.29131,-0.459696 0.73847,-1.22672 0.73847,-1.22672 0,0 0.37732,-0.407914 0.71636,-0.826182 0.31891,-0.393441 1.09349,-1.05697 1.09349,-1.05697 l 0.809,-0.64443 c 0,0 -0.97096,-9.22429 7.28235,-18.12493 z"
       id="path835-4-3-0-0-2"
       inkscape:connector-curvature="0"
       sodipodi:nodetypes="ccccccccccccccscccc" />
  </g>
  <g
     inkscape:groupmode="layer"
     id="layer7"
     inkscape:label="p6"
     style="display:inline"
     sodipodi:insensitive="true">
    <path
       style="display:inline;fill:#b3b3b3;stroke:none;stroke-width:0.90624547px;stroke-linecap:butt;stroke-linejoin:miter;stroke-opacity:1"
       d="m 232.32098,48.972147 -4.34586,3.061318 c 0,0 -3.04897,2.088666 -3.85141,2.968926 -0.84515,0.789232 -1.56841,1.642775 -1.56841,1.642775 0,0 -0.77384,0.805823 -1.15692,1.290295 -0.36566,0.478621 -1.12809,1.557666 -1.25076,1.828985 -0.29304,0.578075 -0.98836,1.719721 -1.37076,3.233766 -0.0415,0.264697 -0.14321,1.032902 -0.14321,1.032902 0,0 0.41365,-0.702123 0.68173,-1.010437 0.45041,-0.635362 0.67684,-0.976139 0.67684,-0.976139 l 0.94587,-1.166537 0.88915,-0.981856 c 0,0 0.65988,-0.606946 0.90919,-0.864271 0.15767,-0.15679 1.01871,-0.925868 1.01871,-0.925868 0,0 0.6545,-0.631642 0.99354,-1.04991 0.31891,-0.393441 1.44627,-1.53574 1.44627,-1.53574 l 0.7586,-0.720025 c 0,0 4.79948,-5.142147 5.36727,-5.828104 z"
       id="path835-4-3-0-0-2-6"
       inkscape:connector-curvature="0"
       sodipodi:nodetypes="ccccccccccccccscccc" />
  </g>
  <g
     inkscape:groupmode="layer"
     id="layer8"
     inkscape:label="p7"
     sodipodi:insensitive="true">
    <path
       style="display:inline;fill:#cccccc;stroke:none;stroke-width:0.90624547px;stroke-linecap:butt;stroke-linejoin:miter;stroke-opacity:1"
       d="m 232.32134,48.97202 6.8e-4,-3.4e-5 c 0,0 0.01,-0.02403 0,0 -0.0123,0.02434 0,0 0,0 0,0 0.0135,-0.02028 0,0 -0.024,0.01893 0.008,-0.02537 0,0 -0.0171,0.01834 0.003,-0.02213 0,0 -0.009,0.02564 0,0 0,0 0,0 -0.019,0.02452 0,0 0.022,-0.02273 0,0 0,0 l 0,0 0,0 c 0,0 -0.0183,0.01637 0,0 0.0167,-0.01899 0,0 0,0 0,0 -0.0203,0.02717 0,0 l 0,0 0,0 c 0,0 -0.0196,0.02418 0,0 z"
       id="path835-4-3-0-0-2-6-7"
       inkscape:connector-curvature="0"
       sodipodi:nodetypes="ccccccccccccccccccc" />
  </g>
  <g
     inkscape:groupmode="layer"
     id="layer9"
     inkscape:label="p8">
    <path
       style="display:inline;fill:#ff0000;stroke:none;stroke-width:0.90624547px;stroke-linecap:butt;stroke-linejoin:miter;stroke-opacity:1"
       d="m 232.32143,48.971945 6.8e-4,-3.4e-5 0,0 0,0 0,0 0,0 0,0 0,0 0,0 0,0 0,0 0,0 0,0 0,0 0,0 0,0 0,0 0,0 z"
       id="path835-4-3-0-0-2-6-7-2"
       inkscape:connector-curvature="0"
       sodipodi:nodetypes="ccccccccccccccccccc" />
  </g>
</svg>
