<?xml version="1.0" encoding="UTF-8" standalone="no"?>
<!-- Created with Inkscape (http://www.inkscape.org/) -->

<svg
   xmlns:dc="http://purl.org/dc/elements/1.1/"
   xmlns:cc="http://creativecommons.org/ns#"
   xmlns:rdf="http://www.w3.org/1999/02/22-rdf-syntax-ns#"
   xmlns:svg="http://www.w3.org/2000/svg"
   xmlns="http://www.w3.org/2000/svg"
   xmlns:sodipodi="http://sodipodi.sourceforge.net/DTD/sodipodi-0.dtd"
   xmlns:inkscape="http://www.inkscape.org/namespaces/inkscape"
   width="1920"
   height="1080"
   viewBox="0 0 541.86668 304.8"
   version="1.1"
   id="svg8"
   inkscape:version="0.92.3 (2405546, 2018-03-11)"
   sodipodi:docname="h_sm_spine.svg">
  <defs
     id="defs2" />
  <sodipodi:namedview
     id="base"
     pagecolor="#ffffff"
     bordercolor="#666666"
     borderopacity="1.0"
     inkscape:pageopacity="0.0"
     inkscape:pageshadow="2"
     inkscape:zoom="22.4"
     inkscape:cx="737.34898"
     inkscape:cy="815.91578"
     inkscape:document-units="mm"
     inkscape:current-layer="layer7"
     showgrid="false"
     inkscape:window-width="2160"
     inkscape:window-height="1406"
     inkscape:window-x="-11"
     inkscape:window-y="-11"
     inkscape:window-maximized="1"
     units="px" />
  <metadata
     id="metadata5">
    <rdf:RDF>
      <cc:Work
         rdf:about="">
        <dc:format>image/svg+xml</dc:format>
        <dc:type
           rdf:resource="http://purl.org/dc/dcmitype/StillImage" />
        <dc:title></dc:title>
      </cc:Work>
    </rdf:RDF>
  </metadata>
  <g
     inkscape:groupmode="layer"
     id="layer2"
     inkscape:label="h1"
     sodipodi:insensitive="true">
    <path
       style="fill:#000000;stroke:none;stroke-width:0.90624547px;stroke-linecap:butt;stroke-linejoin:miter;stroke-opacity:1"
       d="m 211.76907,67.429029 c 0,0 -18.93404,10.357093 -19.74321,23.141631 -0.80914,12.78453 0.16202,43.37032 0.16202,43.37032 0,0 -5.66402,-0.97098 -9.87158,3.72208 -3.88391,4.36939 -8.25331,11.97538 -8.25331,11.97538 0,0 17.30408,-10.31404 17.96308,5.50221 l 0.48548,11.65171 c 0,0 -9.54797,-4.04572 -17.31575,8.25331 -6.47321,12.29907 -4.53125,10.19526 -4.53125,10.19526 0,0 21.36639,-13.31122 21.68516,6.31137 0.30484,18.77256 -5.66401,29.12931 -5.66401,29.12931 0,0 19.41954,-22.17065 19.09585,-49.35801 -0.32367,-27.18736 -0.162,-83.342218 -0.162,-83.342218 0,0 0.97099,-12.946362 6.14952,-20.552353 z"
       id="path832"
       inkscape:connector-curvature="0"
       sodipodi:nodetypes="cscccscccscscc" />
  </g>
  <g
     inkscape:groupmode="layer"
     id="layer1"
     inkscape:label="h2"
     sodipodi:insensitive="true">
    <path
       style="fill:#333333;stroke:none;stroke-width:0.90624541px;stroke-linecap:butt;stroke-linejoin:miter;stroke-opacity:1"
       d="m 211.76908,67.429022 c 0,0 -18.93404,10.357093 -19.74321,23.141631 -0.80914,12.784527 0.16202,43.370317 0.16202,43.370317 0,0 -5.66402,-0.97098 -9.87158,3.72208 -3.88391,4.36939 -4.68972,8.98196 -4.68972,8.98196 0,0 16.5986,-10.89773 16.68019,4.93204 l 0.0579,11.22408 c 0,0 0.0559,4.64944 -3.91664,7.39804 -3.33725,2.17847 -5.24397,5.91895 -5.24397,5.91895 0,0 8.89725,-3.78452 10.28166,4.31576 0.59432,3.47735 2.1759,13.30695 2.1759,13.30695 0,0 6.87569,-20.03249 6.552,-47.21985 -0.32367,-27.18736 1.40598,-58.539605 1.40598,-58.539605 0,0 0.97099,-12.946362 6.14952,-20.552353 z"
       id="path832-7"
       inkscape:connector-curvature="0"
       sodipodi:nodetypes="cscccscccscsccc" />
  </g>
  <g
     inkscape:groupmode="layer"
     id="layer3"
     inkscape:label="h3"
     style="display:inline"
     sodipodi:insensitive="true">
    <path
       style="fill:#4d4d4d;stroke:none;stroke-width:0.90624541px;stroke-linecap:butt;stroke-linejoin:miter;stroke-opacity:1"
       d="m 211.76916,67.428991 c 0,0 -17.5086,10.71345 -18.31777,23.49799 -0.80914,12.784529 1.2311,42.835779 1.2311,42.835779 0,0 -2.49461,0.17822 -6.23672,2.72426 -2.35156,1.76797 -5.40244,5.31146 -5.40244,5.31146 0,0 8.14703,-3.36703 11.47735,2.93644 l 1.09134,2.06564 c 0,0 1.00026,2.79638 1.03675,4.19081 -0.0623,2.27278 -1.07456,4.70733 -1.07456,4.70733 0,0 2.7144,0.68287 3.18615,2.05563 0.50181,1.46023 1.18205,4.4843 1.18205,4.4843 0,0 4.59499,-11.90749 4.2713,-39.09485 -0.32367,-27.187365 1.40598,-35.162438 1.40598,-35.162438 0,0 0.97099,-12.94636 6.14952,-20.552351 z"
       id="path832-7-7"
       inkscape:connector-curvature="0"
       sodipodi:nodetypes="cscccscccscsccc" />
  </g>
  <g
     inkscape:groupmode="layer"
     id="layer4"
     inkscape:label="h4"
     sodipodi:insensitive="true">
    <path
       style="fill:#808080;stroke:none;stroke-width:0.90624541px;stroke-linecap:butt;stroke-linejoin:miter;stroke-opacity:1"
       d="m 211.76903,67.429288 c 0,0 -13.08727,10.094251 -14.30567,16.317191 -0.62038,3.168581 -0.97231,43.699731 -0.9992,44.136661 0,0 -0.0625,1.33488 -0.42807,1.72645 -0.47427,0.47026 -0.69849,1.56969 -0.69849,1.56969 0,0 1.093,-0.0784 1.35674,0.22811 l 0.73498,0.85402 c 0,0 0.96821,-0.0386 1.35748,0.66284 0.49206,0.86168 0.92105,1.50011 0.92105,1.50011 0,0 0.61131,0.86386 1.43999,2.05563 0.37582,0.54048 1.00387,2.09669 1.00387,2.09669 0,0 1.68042,-45.067974 1.67747,-48.306218 -0.006,-6.160536 1.43402,-10.057451 1.43402,-10.057451 0,0 1.32735,-5.177726 6.50588,-12.783723 z"
       id="path832-7-7-9"
       inkscape:connector-curvature="0"
       sodipodi:nodetypes="cscccscccscsccc" />
  </g>
  <g
     inkscape:groupmode="layer"
     id="layer5"
     inkscape:label="h5"
     sodipodi:insensitive="true">
    <path
       style="fill:#b3b3b3;stroke:none;stroke-width:0.90624541px;stroke-linecap:butt;stroke-linejoin:miter;stroke-opacity:1"
       d="m 211.76903,67.433943 c 0,0 -11.80146,9.954996 -12.06301,14.351715 -0.0268,0.450229 0.0295,0.884575 0.003,1.321505 0,0 0.0172,0.516827 -0.0188,0.872761 -0.0288,0.586077 -0.012,1.58087 -0.012,1.58087 0,0 -0.0546,1.002627 -0.0366,1.406538 l 0.0699,1.569009 c 0,0 0.0636,1.355217 0.34596,1.94084 0.1357,0.309323 0.68282,1.982987 0.68282,1.982987 0,0 0.68179,1.423616 0.88663,1.842339 0.16767,0.342742 0.5251,1.693515 0.5251,1.693515 0,0 0.78294,-9.322255 1.04751,-12.549675 0.29638,-3.615496 3.19791,-7.865189 3.19791,-7.865189 0,0 2.91485,-5.454909 5.37195,-8.147215 z"
       id="path832-7-7-9-2"
       inkscape:connector-curvature="0"
       sodipodi:nodetypes="cscccscccscsccc" />
  </g>
  <g
     inkscape:groupmode="layer"
     id="layer6"
     inkscape:label="h6"
     sodipodi:insensitive="true">
    <path
       style="fill:#e6e6e6;stroke:none;stroke-width:0.90624541px;stroke-linecap:butt;stroke-linejoin:miter;stroke-opacity:1"
       d="m 211.76945,67.433658 c 0,0 -4.60596,4.516232 -4.88146,4.776318 -0.27657,0.261093 -0.62566,0.771182 -0.92934,1.044322 0,0 -0.46157,0.466431 -0.64876,0.721571 -0.21779,0.271097 -0.56637,0.774521 -0.56637,0.774521 0,0 -0.42305,0.742498 -0.54057,1.129355 l -0.0939,0.309089 c 0,0 -0.28917,0.800852 -0.37219,1.361276 -0.0407,0.321922 -0.19913,1.000249 -0.19913,1.000249 0,0 -0.12018,0.497108 -0.1717,0.960395 -0.0465,0.418337 -0.13006,1.920298 -0.13006,1.920298 0,0 1.77518,-4.486538 3.76894,-7.232808 0.33002,-0.454575 1.7868,-3.127887 1.7868,-3.127887 0,0 0.521,-0.944393 2.9781,-3.636699 z"
       id="path832-7-7-9-2-9"
       inkscape:connector-curvature="0"
       sodipodi:nodetypes="cscccscccscsccc" />
  </g>
  <g
     inkscape:groupmode="layer"
     id="layer7"
     inkscape:label="h7"
     sodipodi:insensitive="true">
    <path
       style="fill:#ff0000;stroke:none;stroke-width:0.90624541px;stroke-linecap:butt;stroke-linejoin:miter;stroke-opacity:1"
       d="m 211.76975,67.434074 -1.5e-4,-4.73e-4 v 0 0 0 c -0.013,0.0043 0,0 0,0 v 0 0 0 0 0 0 0 0 z"
       id="path832-7-7-9-2-9-1"
       inkscape:connector-curvature="0"
       sodipodi:nodetypes="ccccccccccccccc" />
  </g>
</svg>
