<?xml version="1.0" encoding="UTF-8" standalone="no"?>
<!-- Created with Inkscape (http://www.inkscape.org/) -->

<svg
   xmlns:dc="http://purl.org/dc/elements/1.1/"
   xmlns:cc="http://creativecommons.org/ns#"
   xmlns:rdf="http://www.w3.org/1999/02/22-rdf-syntax-ns#"
   xmlns:svg="http://www.w3.org/2000/svg"
   xmlns="http://www.w3.org/2000/svg"
   xmlns:sodipodi="http://sodipodi.sourceforge.net/DTD/sodipodi-0.dtd"
   xmlns:inkscape="http://www.inkscape.org/namespaces/inkscape"
   width="1920"
   height="1080"
   viewBox="0 0 541.86668 304.8"
   version="1.1"
   id="svg8"
   inkscape:version="0.91 r13725"
   sodipodi:docname="h_top_bit.svg">
  <defs
     id="defs2" />
  <sodipodi:namedview
     id="base"
     pagecolor="#ffffff"
     bordercolor="#666666"
     borderopacity="1.0"
     inkscape:pageopacity="0.0"
     inkscape:pageshadow="2"
     inkscape:zoom="256"
     inkscape:cx="574.59508"
     inkscape:cy="872.21331"
     inkscape:document-units="mm"
     inkscape:current-layer="layer2"
     showgrid="false"
     inkscape:window-width="1703"
     inkscape:window-height="1041"
     inkscape:window-x="0"
     inkscape:window-y="0"
     inkscape:window-maximized="0"
     units="px" />
  <metadata
     id="metadata5">
    <rdf:RDF>
      <cc:Work
         rdf:about="">
        <dc:format>image/svg+xml</dc:format>
        <dc:type
           rdf:resource="http://purl.org/dc/dcmitype/StillImage" />
        <dc:title></dc:title>
      </cc:Work>
    </rdf:RDF>
  </metadata>
  <g
     inkscape:groupmode="layer"
     id="layer2"
     inkscape:label="p4"
     transform="translate(0,94.80001)"
     style="display:inline"
     sodipodi:insensitive="true">
    <path
       style="fill:#000000;stroke:none;stroke-width:0.90624547px;stroke-linecap:butt;stroke-linejoin:miter;stroke-opacity:1"
       d="m 162.0874,-35.875457 c 0,0 0.32367,-3.803 3.39843,-10.276182 6.39326,-11.679783 15.59395,-16.213046 16.88174,-16.873605 1.75332,-0.899358 14.02768,-7.886315 32.23351,0.609721 18.20586,8.496043 34.95519,1.861042 34.95519,1.861042 0,0 -20.79509,13.674598 -40.7001,13.674598 -19.90505,0 -20.30964,-7.039583 -31.5568,-3.155674 -12.9455,4.470397 -15.21197,14.16009 -15.21197,14.16009 z"
       id="path829"
       inkscape:connector-curvature="0"
       sodipodi:nodetypes="ccsscsscc" />
  </g>
  <g
     inkscape:groupmode="layer"
     id="layer1"
     inkscape:label="p3"
     style="display:inline"
     sodipodi:insensitive="true">
    <path
       style="display:inline;fill:#1a1a1a;stroke:none;stroke-width:0.90624547px;stroke-linecap:butt;stroke-linejoin:miter;stroke-opacity:1"
       d="m 162.0855,58.924792 c 0,0 1.18043,-5.818871 4.60802,-12.140862 3.06719,-5.228988 9.68672,-10.316255 10.97453,-10.976814 1.75336,-0.899357 5.16412,-3.792983 13.55261,-3.889054 10.8132,-0.123841 17.55269,8.479451 17.55269,8.479451 0,0 -13.21029,-2.436399 -20.42969,-1.095002 -5.47791,1.017819 -8.88421,1.386561 -18.55502,8.536391 -5.9008,4.36259 -7.70314,11.085882 -7.70314,11.085882 z"
       id="path829-8"
       inkscape:connector-curvature="0"
       sodipodi:nodetypes="ccsscsscc" />
  </g>
  <g
     inkscape:groupmode="layer"
     id="layer4"
     inkscape:label="p2"
     sodipodi:insensitive="true">
    <path
       style="display:inline;fill:#333333;stroke:none;stroke-width:0.90624547px;stroke-linecap:butt;stroke-linejoin:miter;stroke-opacity:1"
       d="m 162.08501,58.924987 c 0,0 1.25603,-5.3653 2.21417,-7.353163 0.90013,-2.154782 1.19686,-2.954286 2.60866,-4.878798 1.59848,-2.178997 2.48186,-2.783722 4.00241,-3.914252 3.69608,-2.748049 5.98661,-3.338606 5.98661,-3.338606 0,0 -4.77771,3.956206 -5.73901,4.877022 -0.90791,0.869679 -2.65333,2.832701 -4.39351,5.109407 -3.64044,4.762851 -4.67933,9.498382 -4.67933,9.498382 z"
       id="path829-8-3"
       inkscape:connector-curvature="0"
       sodipodi:nodetypes="ccsscsscc" />
  </g>
  <g
     inkscape:groupmode="layer"
     id="layer5"
     inkscape:label="p1"
     sodipodi:insensitive="true">
    <path
       style="display:inline;fill:#4d4d4d;stroke:none;stroke-width:0.90624547px;stroke-linecap:butt;stroke-linejoin:miter;stroke-opacity:1"
       d="m 162.08501,58.924987 c 0,0 0.14781,-0.880008 0.36511,-1.880093 0.2872,-1.197268 0.69589,-2.546741 0.92798,-3.192608 0.1818,-0.505906 0.8775,-2.102956 1.35822,-3.140952 0.34954,-0.754746 1.25971,-1.816721 1.25971,-1.816721 0,0 -0.82411,1.486405 -1.2865,2.482057 -0.52956,1.140267 -1.04949,2.50894 -1.3502,3.3383 -0.39835,1.098622 -1.27432,4.210009 -1.27432,4.210009 z"
       id="path829-8-3-3"
       inkscape:connector-curvature="0"
       sodipodi:nodetypes="ccsscsscc" />
  </g>
  <g
     inkscape:groupmode="layer"
     id="layer6"
     inkscape:label="p0"
     style="display:inline"
     sodipodi:insensitive="true">
    <path
       style="display:inline;fill:#ff0000;stroke:none;stroke-width:0.90624547px;stroke-linecap:butt;stroke-linejoin:miter;stroke-opacity:1"
       d="m 162.08501,58.924987 c 0,0 -0.005,0.0319 0,0 0.009,-0.03118 -0.008,0.0455 0,0 0.0119,-0.06403 -2.3e-4,0.02533 0,0 2.3e-4,-0.02553 0,0 0,0 0,0 0.002,-0.02551 0,0 -0.002,0.02634 0,0.02785 0,0 l 0,-8e-6 z"
       id="path829-8-3-3-1"
       inkscape:connector-curvature="0"
       sodipodi:nodetypes="ccsscsscc" />
  </g>
</svg>
